<svg id="Layer_1" data-name="Layer 1" xmlns="http://www.w3.org/2000/svg" viewBox="0 0 320 280"><defs><style>.cls-1{fill:#111;}</style></defs><path class="cls-1" d="M105,210h0Z"/><path class="cls-1" d="M215,70H150V280h65s105,0,105-105S215,70,215,70Zm51.73,195c-25.53,12.81-51.47,13-51.73,13H180V92c0-20,20-20,20-20h15c.26,0,26.2.17,51.73,13,14.89,7.47,26.75,17.73,35.25,30.5,10.63,16,16,36,16,59.52s-5.39,43.54-16,59.52C293.48,247.29,281.62,257.55,266.73,265Z"/><path class="cls-1" d="M208,0V105c0,.26-.17,26.2-13,51.73-7.47,14.89-17.73,26.75-30.5,35.25-16,10.63-36,16-59.52,16h-.14C101.54,207.94,30,205.56,30,103V22C30,2,50,0,50,0H0V105S0,210,105,210,210,105,210,105V0ZM101,207.94l-1,0Zm-4.33-.18-.5,0Z"/></svg>