<svg id="Layer_1" data-name="Layer 1" xmlns="http://www.w3.org/2000/svg" viewBox="0 0 264.53 48.13"><defs><style>.cls-1{fill:#f1f1f1;}</style></defs><title>logo-title</title><path class="cls-1" d="M2.24,19.94Q0,17.57,0,13V.09H.63V12.92q0,4.37,2,6.57a7.56,7.56,0,0,0,5.86,2.22,7.56,7.56,0,0,0,5.86-2.22q2-2.2,2-6.57V.09h.63V13q0,4.62-2.24,7a8.25,8.25,0,0,1-6.29,2.37A8.25,8.25,0,0,1,2.24,19.94Z"/><path class="cls-1" d="M39.14,2a6.56,6.56,0,0,1,2.31,5.35,6.58,6.58,0,0,1-2.31,5.36,9.71,9.71,0,0,1-6.38,1.91H25.91v7.58h-.64V.09h7.49A9.66,9.66,0,0,1,39.14,2Zm-.39,10.28a6.08,6.08,0,0,0,2.07-4.93,6.08,6.08,0,0,0-2.07-4.93A9,9,0,0,0,32.83.7H25.91V14h6.92A9,9,0,0,0,38.75,12.29Z"/><path class="cls-1" d="M48.59,21.44a8,8,0,0,1-3.25-2.26l.44-.41a8,8,0,0,0,3.06,2.1,10.8,10.8,0,0,0,4.24.84,8.26,8.26,0,0,0,5.19-1.38A4.3,4.3,0,0,0,60,16.78a3.89,3.89,0,0,0-.92-2.72,5.76,5.76,0,0,0-2.26-1.52,32.49,32.49,0,0,0-3.61-1,32.23,32.23,0,0,1-3.86-1.15A6.09,6.09,0,0,1,47,8.64a4.56,4.56,0,0,1-1-3.08,5.11,5.11,0,0,1,.79-2.78,5.4,5.4,0,0,1,2.46-2A10,10,0,0,1,53.36,0a11.2,11.2,0,0,1,3.48.55A10.18,10.18,0,0,1,59.77,2l-.34.51a9.9,9.9,0,0,0-2.89-1.44A10.64,10.64,0,0,0,53.39.6a7.85,7.85,0,0,0-5,1.41A4.39,4.39,0,0,0,46.6,5.59a4,4,0,0,0,.92,2.74,5.71,5.71,0,0,0,2.27,1.53,37.42,37.42,0,0,0,3.67,1.07,35.11,35.11,0,0,1,3.82,1.15,6,6,0,0,1,2.4,1.68,4.44,4.44,0,0,1,1,3,5,5,0,0,1-.82,2.78,5.56,5.56,0,0,1-2.51,2,10.45,10.45,0,0,1-4.22.75A11.78,11.78,0,0,1,48.59,21.44Z"/><path class="cls-1" d="M70.52.7H62.3V.09H79.36V.7H71.15V22.21h-.63Z"/><path class="cls-1" d="M96,15.54H82.49L79.4,22.21h-.73L88.94.09h.63L99.84,22.21h-.73Zm-.28-.6L89.25,1l-6.47,14Z"/><path class="cls-1" d="M104.32.09H105V22.21h-.64Z"/><path class="cls-1" d="M129.06,22.21l-5.62-7.8a14,14,0,0,1-2.59.22H114v7.58h-.63V.09h7.49A9.7,9.7,0,0,1,127.23,2a6.55,6.55,0,0,1,2.3,5.35,6.89,6.89,0,0,1-1.42,4.44,7.18,7.18,0,0,1-4,2.45l5.75,8ZM120.91,14a9,9,0,0,0,5.92-1.74,6.08,6.08,0,0,0,2.07-4.93,6.08,6.08,0,0,0-2.07-4.93A9,9,0,0,0,120.91.7H114V14Z"/><path class="cls-1" d="M136.86,21.44a8,8,0,0,1-3.25-2.26l.44-.41a8.08,8.08,0,0,0,3.07,2.1,10.72,10.72,0,0,0,4.23.84,8.29,8.29,0,0,0,5.2-1.38,4.29,4.29,0,0,0,1.75-3.55,3.85,3.85,0,0,0-.92-2.72,5.79,5.79,0,0,0-2.25-1.52,33.42,33.42,0,0,0-3.62-1,32.81,32.81,0,0,1-3.86-1.15,6.05,6.05,0,0,1-2.41-1.71,4.51,4.51,0,0,1-1-3.08A5.11,5.11,0,0,1,135,2.78a5.43,5.43,0,0,1,2.47-2A9.89,9.89,0,0,1,141.63,0a11.2,11.2,0,0,1,3.48.55A10.12,10.12,0,0,1,148.05,2l-.35.51a9.78,9.78,0,0,0-2.89-1.44A10.53,10.53,0,0,0,141.67.6,7.88,7.88,0,0,0,136.61,2a4.39,4.39,0,0,0-1.74,3.58,4,4,0,0,0,.92,2.74,5.71,5.71,0,0,0,2.27,1.53,37.42,37.42,0,0,0,3.67,1.07,35.11,35.11,0,0,1,3.82,1.15,6,6,0,0,1,2.4,1.68,4.39,4.39,0,0,1,1,3,5,5,0,0,1-.82,2.78,5.51,5.51,0,0,1-2.51,2,10.42,10.42,0,0,1-4.22.75A11.78,11.78,0,0,1,136.86,21.44Z"/><path class="cls-1" d="M52,25.92h8.38a12.61,12.61,0,0,1,6.08,1.42,10.35,10.35,0,0,1,4.11,3.95,11.8,11.8,0,0,1,0,11.37,10.22,10.22,0,0,1-4.11,4A12.61,12.61,0,0,1,60.37,48H52ZM60.3,47.43a12.12,12.12,0,0,0,5.83-1.34A9.58,9.58,0,0,0,70,42.36a11.27,11.27,0,0,0,0-10.77,9.65,9.65,0,0,0-3.89-3.73,12.23,12.23,0,0,0-5.83-1.34H52.63V47.43Z"/><path class="cls-1" d="M81.31,46.68a10.71,10.71,0,0,1-4.07-4,11.67,11.67,0,0,1,0-11.41,10.75,10.75,0,0,1,4.07-4,12.19,12.19,0,0,1,11.57,0,10.75,10.75,0,0,1,4.07,4,11.67,11.67,0,0,1,0,11.41,10.71,10.71,0,0,1-4.07,4,12.27,12.27,0,0,1-11.57,0Zm11.23-.52a10.07,10.07,0,0,0,3.86-3.8,11,11,0,0,0,0-10.77,10.11,10.11,0,0,0-3.86-3.79,11.43,11.43,0,0,0-10.89,0,10.11,10.11,0,0,0-3.86,3.79,11,11,0,0,0,0,10.77,10.07,10.07,0,0,0,3.86,3.8,11.51,11.51,0,0,0,10.89,0Z"/><path class="cls-1" d="M132.37,25.92,124.79,48h-.63L116.73,26.8,109.31,48h-.64l-7.58-22.12h.7L109,47l7.4-21.1h.63l7.42,21.17,7.24-21.17Z"/><path class="cls-1" d="M154.9,25.92V48h-.54L138.15,27.09V48h-.63V25.92h.54l16.2,20.95V25.92Z"/><path class="cls-1" d="M164.18,47.26A8,8,0,0,1,160.93,45l.44-.41a8.08,8.08,0,0,0,3.07,2.1,10.72,10.72,0,0,0,4.23.84,8.36,8.36,0,0,0,5.2-1.37,4.33,4.33,0,0,0,1.75-3.56,3.91,3.91,0,0,0-.91-2.72,5.77,5.77,0,0,0-2.26-1.51,29.39,29.39,0,0,0-3.62-1A34.56,34.56,0,0,1,165,36.17a6.13,6.13,0,0,1-2.41-1.7,4.54,4.54,0,0,1-1-3.09,5.22,5.22,0,0,1,.79-2.78,5.5,5.5,0,0,1,2.47-2,10.07,10.07,0,0,1,4.14-.76,11.2,11.2,0,0,1,3.47.56,10.12,10.12,0,0,1,2.94,1.47l-.35.5a9.78,9.78,0,0,0-2.89-1.44,10.86,10.86,0,0,0-3.14-.49,7.88,7.88,0,0,0-5.06,1.41,4.41,4.41,0,0,0-1.74,3.59,4,4,0,0,0,.92,2.73,5.71,5.71,0,0,0,2.27,1.53,34.49,34.49,0,0,0,3.67,1.08,33,33,0,0,1,3.82,1.15,6.09,6.09,0,0,1,2.4,1.67,4.41,4.41,0,0,1,1,3,5,5,0,0,1-.82,2.78,5.59,5.59,0,0,1-2.51,2,10.6,10.6,0,0,1-4.22.74A11.78,11.78,0,0,1,164.18,47.26Z"/><path class="cls-1" d="M186.11,26.52H177.9v-.6H195v.6h-8.22V48h-.63Z"/><path class="cls-1" d="M211.61,41.37H198.08L195,48h-.73l10.27-22.12h.63L215.43,48h-.73Zm-.29-.6-6.47-14-6.48,14Z"/><path class="cls-1" d="M219.92,25.92h.63V48h-.63Z"/><path class="cls-1" d="M244.65,48,239,40.23a13.17,13.17,0,0,1-2.59.22h-6.86V48H229V25.92h7.49a9.73,9.73,0,0,1,6.38,1.91,6.58,6.58,0,0,1,2.31,5.36,6.9,6.9,0,0,1-1.42,4.43,7.19,7.19,0,0,1-4,2.45l5.75,8Zm-8.15-8.19a9,9,0,0,0,5.93-1.74,6.06,6.06,0,0,0,2.07-4.92,6.08,6.08,0,0,0-2.07-4.93,9,9,0,0,0-5.93-1.74h-6.92V39.85Z"/><path class="cls-1" d="M252.46,47.26A8,8,0,0,1,249.2,45l.44-.41a8.08,8.08,0,0,0,3.07,2.1,10.79,10.79,0,0,0,4.23.84,8.36,8.36,0,0,0,5.2-1.37,4.33,4.33,0,0,0,1.75-3.56,3.91,3.91,0,0,0-.91-2.72,5.7,5.7,0,0,0-2.26-1.51,28.88,28.88,0,0,0-3.62-1,33.65,33.65,0,0,1-3.85-1.16,6.09,6.09,0,0,1-2.42-1.7,4.59,4.59,0,0,1-1-3.09,5.22,5.22,0,0,1,.79-2.78,5.5,5.5,0,0,1,2.47-2,10.1,10.1,0,0,1,4.14-.76,11.1,11.1,0,0,1,3.47.56,10.12,10.12,0,0,1,2.94,1.47l-.35.5a9.66,9.66,0,0,0-2.89-1.44,10.86,10.86,0,0,0-3.14-.49,7.88,7.88,0,0,0-5.06,1.41,4.4,4.4,0,0,0-1.73,3.59,4,4,0,0,0,.91,2.73,5.67,5.67,0,0,0,2.28,1.53,33.51,33.51,0,0,0,3.66,1.08,33.25,33.25,0,0,1,3.83,1.15,6.23,6.23,0,0,1,2.4,1.67,4.46,4.46,0,0,1,1,3,5,5,0,0,1-.83,2.78,5.54,5.54,0,0,1-2.51,2,10.57,10.57,0,0,1-4.22.74A11.73,11.73,0,0,1,252.46,47.26Z"/></svg>